<?xml version="1.0" encoding="UTF-8"?>
<svg version="1.1" xmlns="http://www.w3.org/2000/svg" width="512" height="512">
<path d="M0 0 C5.2280257 4.29859891 8.42705316 8.38592667 9.31549072 15.13154602 C9.44590746 16.72934563 9.56687622 18.32793208 9.68066406 19.92700195 C9.78592785 21.2650932 9.78592785 21.2650932 9.89331818 22.6302166 C10.12981128 25.66566472 10.35395619 28.70189974 10.578125 31.73828125 C10.74702682 33.9446541 10.91658326 36.15097691 11.08673096 38.35725403 C11.51537036 43.94687045 11.93521356 49.53710292 12.35125947 55.12766987 C12.72199631 60.10714225 13.09653903 65.08631838 13.47290039 70.06536865 C14.81377937 87.81217508 16.13729477 105.56020401 17.44326019 123.30961418 C17.56682318 124.98888054 17.69039141 126.66814652 17.81396484 128.34741211 C17.87529429 129.18086438 17.93662374 130.01431666 17.99981165 130.87302506 C18.5043352 137.72341659 19.01426866 144.57339866 19.52514338 151.42331904 C20.0259195 158.14184352 20.52244474 164.86067401 21.01581883 171.57974607 C21.30709095 175.54517543 21.60005763 179.51046002 21.8976059 183.47542381 C22.17501384 187.17338259 22.44707643 190.8716983 22.71525764 194.5703373 C22.85946216 196.54130356 23.00902928 198.51187527 23.15885925 200.48242188 C23.60951115 206.76887595 23.94276498 213.05353573 24.05914307 219.35493469 C24.08540897 220.54505818 24.11167488 221.73518167 24.13873672 222.96136951 C23.5296185 229.21828207 20.54302983 233.33455446 15.8125 237.3125 C10.97557732 239.91010663 7.28608295 240.89895532 1.8125 240.3125 C-6.07624413 237.68291862 -10.83599432 232.8916 -16.0703125 226.75 C-18.71147302 223.70925431 -21.44602403 220.76264918 -24.1875 217.8125 C-27.95346918 213.75276448 -31.6597151 209.6583688 -35.28125 205.46875 C-37.87034958 202.54009638 -40.52944681 199.67851823 -43.1875 196.8125 C-46.9530356 192.75235037 -50.65970026 188.65838598 -54.28125 184.46875 C-56.87034958 181.54009638 -59.52944681 178.67851823 -62.1875 175.8125 C-65.39909642 172.34962954 -68.5985278 168.88601686 -71.6875 165.3125 C-75.24433038 161.20045707 -78.94333684 157.2248038 -82.63793945 153.23706055 C-87.20360385 148.30585742 -91.70502326 143.31943471 -96.1875 138.3125 C-101.03220939 132.90912142 -105.89959075 127.52885577 -110.8125 122.1875 C-113.78968281 118.95032784 -116.74702856 115.70112271 -119.625 112.375 C-122.73715619 108.78289683 -125.95655459 105.29730895 -129.1875 101.8125 C-149.54212773 79.82360489 -149.54212773 79.82360489 -149.40234375 68.03515625 C-148.90397041 61.71940688 -145.51920213 58.54331824 -141.1875 54.3125 C-140.42953125 53.56871094 -139.6715625 52.82492188 -138.890625 52.05859375 C-112.83039965 27.53376384 -37.43405818 -19.46887592 0 0 Z " fill="#FF0059" transform="translate(229.1875,1.6875)"/>
<path d="M0 0 C7.7838914 6.18083946 8.7763873 15.13470428 10.49023438 24.43139648 C10.72969284 25.6941893 10.96915131 26.95698212 11.21586609 28.25804138 C11.86981251 31.70767013 12.51379217 35.15909187 13.15595818 38.6109302 C13.83337823 42.24269982 14.52004343 45.87272089 15.20568848 49.50294495 C16.50473878 56.38855408 17.79552962 63.27568446 19.08334017 70.16340357 C20.53803759 77.94150187 22.00190153 85.71786539 23.46657658 93.49408996 C25.25696011 103.00035455 27.04554362 112.5069556 28.82775879 122.01475525 C28.95364081 122.68618299 29.07952283 123.35761073 29.20921946 124.04938477 C29.81294155 127.27062137 30.41537168 130.49209277 31.01618195 133.71387386 C31.96473042 138.79741266 32.91641103 143.87951557 33.91918945 148.95266724 C34.1364053 150.06371747 34.1364053 150.06371747 34.35800934 151.19721317 C34.71526853 153.01622865 35.07965221 154.83384142 35.44494629 156.65126038 C36.40646089 163.21452132 36.32992044 169.01195168 32.90234375 174.7734375 C28.90008482 179.10087997 25.23891585 182.57873037 19.14111328 182.93457031 C15.43639295 182.98092648 11.73233982 183.02014893 8.02734375 183.0234375 C7.35140167 183.02411224 6.67545959 183.02478699 5.97903442 183.02548218 C-5.9242154 183.00663928 -17.41487935 182.12698434 -29.09765625 179.7734375 C-29.95617187 179.60183105 -30.8146875 179.43022461 -31.69921875 179.25341797 C-62.75303922 172.84684992 -105.23673174 159.15522349 -125.09765625 132.7734375 C-127.99709457 127.40947661 -127.74487397 122.1034213 -126.16015625 116.3984375 C-123.60961237 111.09185568 -119.08653628 107.01078312 -115.09765625 102.7734375 C-113.96561286 101.48793933 -112.840062 100.19667945 -111.72265625 98.8984375 C-108.31150899 94.9819351 -104.80172972 91.1583614 -101.28564453 87.33642578 C-98.37004565 84.16599818 -95.4739792 80.97966129 -92.59765625 77.7734375 C-89.24880552 74.04048919 -85.8680006 70.33897905 -82.47265625 66.6484375 C-79.49542985 63.41130659 -76.53812659 60.16205894 -73.66015625 56.8359375 C-70.07963313 52.70588565 -66.36185863 48.7073968 -62.64746094 44.69824219 C-58.08168983 39.76698096 -53.58020963 34.78045782 -49.09765625 29.7734375 C-41.20625 20.97203125 -41.20625 20.97203125 -37.26171875 16.6875 C-36.5354126 15.89835205 -36.5354126 15.89835205 -35.79443359 15.09326172 C-34.42295918 13.60514487 -33.04942939 12.11892306 -31.67578125 10.6328125 C-29.87594627 8.63663189 -28.17193238 6.64567262 -26.48828125 4.55859375 C-19.61645425 -3.44730927 -9.233462 -5.39908207 0 0 Z " fill="#FF0059" transform="translate(250.09765625,329.2265625)"/>
<path d="M0 0 C1.30446579 0.08456955 2.60893158 0.1691391 3.95292664 0.25627136 C7.47970825 0.48520793 11.00605067 0.72031993 14.53231573 0.95706511 C17.4921142 1.15522535 20.4521103 1.35034364 23.41210663 1.54552233 C30.39597568 2.006115 37.37948789 2.4718579 44.36279297 2.94091797 C51.54188098 3.42303742 58.7215109 3.89636719 65.90146244 4.36543596 C72.09837306 4.77059318 78.29490744 5.18118596 84.49117291 5.59609282 C88.17819513 5.84292644 91.86532085 6.08776259 95.55282211 6.32734299 C99.65946828 6.59443713 103.76527103 6.87287663 107.87109375 7.15234375 C109.07752029 7.22930984 110.28394684 7.30627594 111.52693176 7.38557434 C130.67683683 8.71951227 130.67683683 8.71951227 137.04736328 15.20556641 C141.30865699 20.86627906 141.52357985 26.33911489 141.04736328 33.20556641 C140.53740008 36.43291908 139.77152146 39.55209451 138.92236328 42.70556641 C138.69718018 43.56649902 138.47199707 44.42743164 138.23999023 45.31445312 C128.08994052 83.29101896 109.28273542 115.90283808 82.04736328 144.20556641 C81.55139648 144.72344727 81.05542969 145.24132812 80.54443359 145.77490234 C66.62527096 160.24170417 66.62527096 160.24170417 57.35986328 160.51806641 C51.45415466 160.43210267 46.87121208 158.96656851 42.58837891 154.77905273 C38.46953912 149.97107703 35.12214931 144.83412697 31.79736328 139.45556641 C26.27638109 130.64456022 20.59215164 121.96226746 14.79736328 113.33056641 C9.72426747 105.76727983 4.71119775 98.18503578 -0.04736328 90.41894531 C-4.17748833 83.73498554 -8.57833127 77.23079364 -12.95263672 70.70556641 C-19.05855062 61.59378607 -25.06068304 52.43882289 -30.79199219 43.08544922 C-32.092977 40.97825883 -33.41380019 38.88431058 -34.73779297 36.79150391 C-35.43388672 35.68875122 -35.43388672 35.68875122 -36.14404297 34.5637207 C-37.03386263 33.15499802 -37.92567384 31.74753059 -38.81982422 30.34155273 C-42.52305843 24.45724023 -43.73199747 20.07507476 -42.95263672 13.20556641 C-41.29720912 7.61101893 -38.46350393 4.28731658 -33.63623047 1.11572266 C-24.83346914 -3.64307871 -9.62826035 -0.65313703 0 0 Z " fill="#D20041" transform="translate(329.95263671875,305.79443359375)"/>
<path d="M0 0 C13.09139537 8.5777412 25.15315189 18.10031021 36.375 29 C36.94992187 29.54914063 37.52484375 30.09828125 38.1171875 30.6640625 C46.69750624 38.86969483 54.38911065 47.39810658 61.375 57 C61.77605957 57.54076172 62.17711914 58.08152344 62.59033203 58.63867188 C73.39884355 73.35626908 88.41677276 95.29166356 86.375 114 C84.08764464 120.54140879 79.38445936 123.98969882 73.375 127 C69.66854682 128.3273957 65.90159706 129.27748825 62.07910156 130.21044922 C60.41843155 130.63358902 60.41843155 130.63358902 58.72421265 131.0652771 C55.0745617 131.99169757 51.42028455 132.89824644 47.765625 133.8046875 C45.19823317 134.45217157 42.6311418 135.1007481 40.06439209 135.75076294 C33.98800684 137.28701259 27.90813759 138.80897276 21.82687354 140.32578003 C15.01557539 142.02539954 8.20830256 143.74085787 1.40134478 145.45776343 C-10.45797066 148.44854589 -22.31846596 151.43477491 -34.18712997 154.38827324 C-39.6003131 155.73623502 -45.01015242 157.09444344 -50.41089129 158.49156797 C-52.34491958 158.99136175 -54.27995585 159.48724967 -56.21500015 159.98309517 C-58.64273947 160.60562841 -61.06884838 161.23456792 -63.49297714 161.87101555 C-72.18251317 164.08797049 -78.36861385 165.43398515 -86.625 161 C-91.71245298 156.72191454 -94.22947754 152.72471027 -95.1875 146.125 C-94.66325246 132.75187189 -85.66268475 117.70749726 -80.54013062 105.5098877 C-78.31072977 100.20067043 -76.09123365 94.88731378 -73.87109375 89.57421875 C-73.4245192 88.50603912 -72.97794464 87.4378595 -72.51783752 86.33731079 C-68.73558584 77.28296183 -64.99980126 68.21012629 -61.28552246 59.12771606 C-60.31743887 56.76206881 -59.34710366 54.39735831 -58.37597656 52.03295898 C-55.41530407 44.82283133 -52.46387184 37.60943349 -49.54530334 30.38214111 C-48.19577848 27.04742785 -46.83539079 23.7172137 -45.47280884 20.38781738 C-44.83396077 18.81972666 -44.19983204 17.24970334 -43.57089233 15.6776123 C-35.97490038 -3.29807633 -35.97490038 -3.29807633 -27.6875 -6.9375 C-17.0984989 -10.14022245 -8.84164322 -5.63258269 0 0 Z " fill="#D20041" transform="translate(376.625,110)"/>
<path d="M0 0 C2.75928532 1.41677802 5.36407767 2.96675839 7.98583984 4.62402344 C8.96447998 5.20941895 9.94312012 5.79481445 10.95141602 6.39794922 C13.00859323 7.62960155 15.05910217 8.87245536 17.10302734 10.12597656 C21.0434118 12.52981161 25.03176813 14.84518119 29.02563477 17.15869141 C32.02408108 18.89618285 35.01528589 20.64562562 38.00537109 22.39746094 C44.37899116 26.12533135 50.77464446 29.81440684 57.17333984 33.49902344 C67.5298804 39.46533321 77.86457313 45.46779935 88.18115234 51.50292969 C92.35465836 53.94287858 96.53818751 56.36457903 100.72802734 58.77636719 C101.80681152 59.39954834 102.8855957 60.02272949 103.99707031 60.66479492 C106.04841506 61.84940315 108.10197734 63.03018342 110.15820312 64.20629883 C128.02193397 74.54480581 128.02193397 74.54480581 131.17333984 83.99902344 C131.61746344 89.66159934 130.86413117 94.05261889 128.17333984 98.99902344 C121.93884158 105.47050555 113.99417449 108.79237594 105.98583984 112.56152344 C104.50336396 113.26889917 103.0212728 113.9770817 101.53955078 114.68603516 C91.22942202 119.60642635 80.86971624 124.42215102 70.49487305 129.2043457 C62.17570077 133.04455566 53.91502466 136.9963216 45.67333984 140.99902344 C32.64636772 147.324261 19.54577738 153.47933246 6.38110352 159.51318359 C4.13839821 160.55200729 1.90481277 161.61064578 -0.3215332 162.68408203 C-1.46146729 163.22887207 -2.60140137 163.77366211 -3.77587891 164.33496094 C-4.79770264 164.83044434 -5.81952637 165.32592773 -6.87231445 165.83642578 C-12.98852359 168.24328372 -19.07309808 168.03160553 -25.13916016 165.56152344 C-32.29391157 161.23946952 -34.80295226 154.82544396 -36.86816406 147.03588867 C-37.99726749 142.38335102 -38.93950334 137.70305532 -39.82666016 132.99902344 C-40.07657715 131.70399902 -40.07657715 131.70399902 -40.33154297 130.3828125 C-42.73482965 117.32147184 -43.10921446 104.3024835 -43.13916016 91.06152344 C-43.14467392 89.89484131 -43.14467392 89.89484131 -43.15029907 88.70458984 C-43.2072106 65.65755178 -41.4295452 22.26304768 -24.44384766 4.55761719 C-17.26589022 -1.62841146 -9.12228792 -3.23038353 0 0 Z " fill="#FF0059" transform="translate(84.82666015625,205.0009765625)"/>
</svg>
